<svg width="99" height="86" viewBox="0 0 99 86" fill="none" xmlns="http://www.w3.org/2000/svg">
<g opacity="0.5">
<circle cx="2.5" cy="2.5" r="2.5" fill="#8CBFE2"/>
<circle cx="15.5" cy="2.5" r="2.5" fill="#8CBFE2"/>
<circle cx="28.5" cy="2.5" r="2.5" fill="#8CBFE2"/>
<circle cx="41.5" cy="2.5" r="2.5" fill="#8CBFE2"/>
<circle cx="54.5" cy="2.5" r="2.5" fill="#8CBFE2"/>
<circle cx="67.5" cy="2.5" r="2.5" fill="#8CBFE2"/>
<circle cx="2.5" cy="15.5" r="2.5" fill="#8CBFE2"/>
<circle cx="15.5" cy="15.5" r="2.5" fill="#8CBFE2"/>
<circle cx="28.5" cy="15.5" r="2.5" fill="#8CBFE2"/>
<circle cx="41.5" cy="15.5" r="2.5" fill="#8CBFE2"/>
<circle cx="54.5" cy="15.5" r="2.5" fill="#8CBFE2"/>
<circle cx="67.5" cy="15.5" r="2.5" fill="#8CBFE2"/>
<circle cx="2.5" cy="28.5" r="2.5" fill="#8CBFE2"/>
<circle cx="15.5" cy="28.5" r="2.5" fill="#8CBFE2"/>
<circle cx="28.5" cy="28.5" r="2.5" fill="#8CBFE2"/>
<circle cx="41.5" cy="28.5" r="2.5" fill="#8CBFE2"/>
<circle cx="54.5" cy="28.5" r="2.5" fill="#8CBFE2"/>
<circle cx="67.5" cy="28.5" r="2.5" fill="#8CBFE2"/>
<circle cx="2.5" cy="41.5" r="2.5" fill="#8CBFE2"/>
<circle cx="15.5" cy="41.5" r="2.5" fill="#8CBFE2"/>
<circle cx="28.5" cy="41.5" r="2.5" fill="#8CBFE2"/>
<circle cx="41.5" cy="41.5" r="2.5" fill="#8CBFE2"/>
<circle cx="54.5" cy="41.5" r="2.5" fill="#8CBFE2"/>
<circle cx="67.5" cy="41.5" r="2.5" fill="#8CBFE2"/>
<circle cx="2.5" cy="54.5" r="2.5" fill="#8CBFE2"/>
<circle cx="15.5" cy="54.5" r="2.5" fill="#8CBFE2"/>
<circle cx="28.5" cy="54.5" r="2.5" fill="#8CBFE2"/>
<circle cx="41.5" cy="54.5" r="2.5" fill="#8CBFE2"/>
<circle cx="54.5" cy="54.5" r="2.5" fill="#8CBFE2"/>
<circle cx="67.5" cy="54.5" r="2.5" fill="#8CBFE2"/>
<circle cx="80.5" cy="2.5" r="2.5" fill="#8CBFE2"/>
<circle cx="80.5" cy="15.5" r="2.5" fill="#8CBFE2"/>
<circle cx="80.5" cy="28.5" r="2.5" fill="#8CBFE2"/>
<circle cx="80.5" cy="41.5" r="2.5" fill="#8CBFE2"/>
<circle cx="80.5" cy="54.5" r="2.5" fill="#8CBFE2"/>
<circle cx="2.5" cy="67.5" r="2.5" fill="#8CBFE2"/>
<circle cx="15.5" cy="67.5" r="2.5" fill="#8CBFE2"/>
<circle cx="28.5" cy="67.5" r="2.5" fill="#8CBFE2"/>
<circle cx="41.5" cy="67.5" r="2.5" fill="#8CBFE2"/>
<circle cx="54.5" cy="67.5" r="2.5" fill="#8CBFE2"/>
<circle cx="67.5" cy="67.5" r="2.5" fill="#8CBFE2"/>
<circle cx="80.5" cy="67.5" r="2.5" fill="#8CBFE2"/>
<circle cx="93.5" cy="2.5" r="2.5" fill="#8CBFE2"/>
<circle cx="93.5" cy="15.5" r="2.5" fill="#8CBFE2"/>
<circle cx="93.5" cy="28.5" r="2.5" fill="#8CBFE2"/>
<circle cx="93.5" cy="41.5" r="2.5" fill="#8CBFE2"/>
<circle cx="93.5" cy="54.5" r="2.5" fill="#8CBFE2"/>
<circle cx="93.5" cy="67.5" r="2.5" fill="#8CBFE2"/>
<circle cx="2.5" cy="80.5" r="2.5" fill="#8CBFE2"/>
<circle cx="15.5" cy="80.5" r="2.5" fill="#8CBFE2"/>
<circle cx="28.5" cy="80.5" r="2.5" fill="#8CBFE2"/>
<circle cx="41.5" cy="80.5" r="2.5" fill="#8CBFE2"/>
<circle cx="54.5" cy="80.5" r="2.5" fill="#8CBFE2"/>
<circle cx="67.5" cy="80.5" r="2.5" fill="#8CBFE2"/>
<circle cx="80.5" cy="80.5" r="2.5" fill="#8CBFE2"/>
<circle cx="93.5" cy="80.5" r="2.5" fill="#8CBFE2"/>
</g>
</svg>
