<svg width="99" height="65" viewBox="0 0 99 65" fill="none" xmlns="http://www.w3.org/2000/svg">
<g opacity="0.5">
<circle cx="2.5" cy="7.5" r="2.5" fill="#C4C4C4"/>
<circle cx="15.5" cy="7.5" r="2.5" fill="#C4C4C4"/>
<circle cx="28.5" cy="7.5" r="2.5" fill="#C4C4C4"/>
<circle cx="41.5" cy="7.5" r="2.5" fill="#C4C4C4"/>
<circle cx="54.5" cy="7.5" r="2.5" fill="#C4C4C4"/>
<circle cx="67.5" cy="7.5" r="2.5" fill="#C4C4C4"/>
<circle cx="2.5" cy="20.5" r="2.5" fill="#C4C4C4"/>
<circle cx="15.5" cy="20.5" r="2.5" fill="#C4C4C4"/>
<circle cx="28.5" cy="20.5" r="2.5" fill="#C4C4C4"/>
<circle cx="41.5" cy="20.5" r="2.5" fill="#C4C4C4"/>
<circle cx="54.5" cy="20.5" r="2.5" fill="#C4C4C4"/>
<circle cx="67.5" cy="20.5" r="2.5" fill="#C4C4C4"/>
<circle cx="2.5" cy="33.5" r="2.5" fill="#C4C4C4"/>
<circle cx="15.5" cy="33.5" r="2.5" fill="#C4C4C4"/>
<circle cx="28.5" cy="33.5" r="2.5" fill="#C4C4C4"/>
<circle cx="41.5" cy="33.5" r="2.5" fill="#C4C4C4"/>
<circle cx="54.5" cy="33.5" r="2.5" fill="#C4C4C4"/>
<circle cx="67.5" cy="33.5" r="2.5" fill="#C4C4C4"/>
<circle cx="80.5" cy="7.5" r="2.5" fill="#C4C4C4"/>
<circle cx="80.5" cy="20.5" r="2.5" fill="#C4C4C4"/>
<circle cx="80.5" cy="33.5" r="2.5" fill="#C4C4C4"/>
<circle cx="2.5" cy="46.5" r="2.5" fill="#C4C4C4"/>
<circle cx="15.5" cy="46.5" r="2.5" fill="#C4C4C4"/>
<circle cx="28.5" cy="46.5" r="2.5" fill="#C4C4C4"/>
<circle cx="41.5" cy="46.5" r="2.5" fill="#C4C4C4"/>
<circle cx="54.5" cy="46.5" r="2.5" fill="#C4C4C4"/>
<circle cx="67.5" cy="46.5" r="2.5" fill="#C4C4C4"/>
<circle cx="80.5" cy="46.5" r="2.5" fill="#C4C4C4"/>
<circle cx="93.5" cy="7.5" r="2.5" fill="#C4C4C4"/>
<circle cx="93.5" cy="20.5" r="2.5" fill="#C4C4C4"/>
<circle cx="93.5" cy="33.5" r="2.5" fill="#C4C4C4"/>
<circle cx="93.5" cy="46.5" r="2.5" fill="#C4C4C4"/>
<circle cx="2.5" cy="59.5" r="2.5" fill="#C4C4C4"/>
<circle cx="15.5" cy="59.5" r="2.5" fill="#C4C4C4"/>
<circle cx="28.5" cy="59.5" r="2.5" fill="#C4C4C4"/>
<circle cx="41.5" cy="59.5" r="2.5" fill="#C4C4C4"/>
<circle cx="54.5" cy="59.5" r="2.5" fill="#C4C4C4"/>
<circle cx="67.5" cy="59.5" r="2.5" fill="#C4C4C4"/>
<circle cx="80.5" cy="59.5" r="2.5" fill="#C4C4C4"/>
<circle cx="93.5" cy="59.5" r="2.5" fill="#C4C4C4"/>
</g>
</svg>
